<?xml version="1.0" encoding="utf-8"?>
<!-- Generator: Adobe Illustrator 25.2.3, SVG Export Plug-In . SVG Version: 6.00 Build 0)  -->
<svg version="1.1" id="Capa_1" xmlns="http://www.w3.org/2000/svg" xmlns:xlink="http://www.w3.org/1999/xlink" x="0px" y="0px"
	 width="47.7px" height="4.7px" viewBox="0 0 47.7 4.7" style="enable-background:new 0 0 47.7 4.7;" xml:space="preserve">
<style type="text/css">
	.st0{fill:#FFFFFF;}
</style>
<path class="st0" d="M46.7,0.2c-1.7,0-2.6,0.9-3.4,1.6C42.7,2.5,42.1,3,41,3s-1.7-0.5-2.3-1.2C38,1.1,37,0.2,35.3,0.2
	s-2.7,0.9-3.4,1.6C31.2,2.5,30.7,3,29.6,3s-1.7-0.5-2.3-1.2c-0.7-0.7-1.6-1.6-3.4-1.6c-1.7,0-2.7,0.9-3.4,1.6
	C19.8,2.5,19.3,3,18.1,3c-1.1,0-1.7-0.5-2.3-1.2c-0.7-0.7-1.6-1.6-3.4-1.6S9.8,1.1,9,1.8C8.3,2.5,7.8,3,6.7,3S5,2.5,4.4,1.8
	C3.6,1.1,2.7,0.2,1,0.2C0.6,0.2,0.2,0.5,0.2,1S0.6,1.7,1,1.7c1.1,0,1.7,0.5,2.3,1.2C4,3.6,5,4.5,6.7,4.5c1.7,0,2.6-0.9,3.4-1.6
	c0.7-0.7,1.2-1.2,2.3-1.2s1.7,0.5,2.3,1.2c0.7,0.7,1.6,1.6,3.4,1.6c1.7,0,2.6-0.9,3.4-1.6c0.7-0.7,1.2-1.2,2.3-1.2
	c1.1,0,1.7,0.5,2.3,1.2c0.7,0.7,1.6,1.6,3.4,1.6c1.7,0,2.6-0.9,3.4-1.6c0.7-0.7,1.2-1.2,2.3-1.2s1.7,0.5,2.3,1.2
	c0.7,0.7,1.6,1.6,3.4,1.6c1.7,0,2.7-0.9,3.4-1.6c0.7-0.7,1.2-1.2,2.3-1.2c0.4,0,0.8-0.3,0.8-0.8S47.2,0.2,46.7,0.2z"/>
</svg>
