<svg id="Capa_1" data-name="Capa 1" xmlns="http://www.w3.org/2000/svg" viewBox="0 0 53 53"><defs><style>.cls-1{fill:#fff;}.cls-2{fill:#7d5786;}.cls-3{fill:#8341a2;}</style></defs><circle class="cls-1" cx="26.5" cy="26.5" r="26.5"/><path class="cls-2" d="M48.4,21.8v25a1.54,1.54,0,0,1-1.5,1.5H7.1a1.54,1.54,0,0,1-1.5-1.5v-25l.3-.2.2.2H47.8l.2-.2Z" transform="translate(-0.5 -0.5)"/><path class="cls-1" d="M48.1,21.6,41,16.1l-2.2-1.7V10.1a1.54,1.54,0,0,0-1.5-1.5h-6L27.9,6a1.5,1.5,0,0,0-1.8,0L22.7,8.6H14.5A1.54,1.54,0,0,0,13,10.1v6.1L5.9,21.7l.2.2H5.7v25a1.61,1.61,0,0,0,.3.9,1.8,1.8,0,0,0,.9.6H44.7a1.54,1.54,0,0,0,1.5-1.5V23.2l1.7-1.3Z" transform="translate(-0.5 -0.5)"/><path class="cls-2" d="M48.1,47.8a1.43,1.43,0,0,1-1.2.6H44.7a1.54,1.54,0,0,0,1.5-1.5v-.6Z" transform="translate(-0.5 -0.5)"/><polygon class="cls-1" points="5.9 21.3 5.9 30.9 5.9 46.4 4.4 46.4 4.4 30.9 4.4 21.3 5.9 21.3"/><path class="cls-1" d="M41,10.1V27.2l-2.2,1.7-7.6,5.8-3.4-2.5H26.3l-3.8,2.2L13,27.1v-17a1.54,1.54,0,0,1,1.5-1.5h25A1.42,1.42,0,0,1,41,10.1Z" transform="translate(-0.5 -0.5)"/><path class="cls-3" d="M49.1,21.6v-.1a.1.1,0,0,0-.1-.1l-.1-.1h0l-7.1-5.5V10.1a2.22,2.22,0,0,0-2.2-2.2h-8L28.4,5.4a2.25,2.25,0,0,0-2.7,0L22.5,7.8h-8A2.22,2.22,0,0,0,12.3,10v5.7L5.2,21.2a.71.71,0,0,0-.3.6h0v2.9a.7.7,0,0,0,1.4,0V23l12.2,9.3a.71.71,0,1,0,.9-1.1L7.1,21.7l5.2-4v5.7a.7.7,0,1,0,1.4,0V10.1a.68.68,0,0,1,.7-.7h25a.68.68,0,0,1,.7.7V23.4a.7.7,0,0,0,1.4,0V17.7l5.2,4L34.4,31.2a.91.91,0,0,0-.3.7.63.63,0,0,0,.5.6.62.62,0,0,0,.7-.1L47.6,23V46.5l-19.3-15a2.25,2.25,0,0,0-2.7,0L6.3,46.5V24.7a.7.7,0,0,0-1.4,0V46.9a2.84,2.84,0,0,0,.4,1.3h0a2.4,2.4,0,0,0,1.7.9H46.8a2,2,0,0,0,1.7-.9h0a2,2,0,0,0,.4-1.3v-25h0C49.1,21.7,49.1,21.7,49.1,21.6ZM26.6,6.5a.75.75,0,0,1,.9,0l1.7,1.3H24.9Zm0,26.2a.75.75,0,0,1,.9,0l19.3,15H7.3Z" transform="translate(-0.5 -0.5)"/><path class="cls-3" d="M27,17.6a.7.7,0,0,0,0-1.4,4.44,4.44,0,0,0-2.4,8.2,4.36,4.36,0,0,0,5.3-.5A2.89,2.89,0,0,0,33,26.5a3,3,0,0,0,2.8-2.9V20.7A8.8,8.8,0,1,0,27,29.5a.7.7,0,1,0,0-1.4,7.4,7.4,0,1,1,7.4-7.4v2.9a1.5,1.5,0,0,1-3,0V20.7a.7.7,0,0,0-1.4,0,2.9,2.9,0,1,1-5.8,0A2.82,2.82,0,0,1,27,17.6Z" transform="translate(-0.5 -0.5)"/><rect class="cls-1" x="15.3" y="7.3" width="6" height="1.5"/><path class="cls-3" d="M16.2,7.8H14.7V9.3h1.5a.68.68,0,0,0,.7-.7A.71.71,0,0,0,16.2,7.8Z" transform="translate(-0.5 -0.5)"/><path class="cls-3" d="M22,7.8a.7.7,0,0,0,0,1.4h2.2V7.7H22Z" transform="translate(-0.5 -0.5)"/><path class="cls-3" d="M18.9,9.3a.76.76,0,0,0,.5-.2.67.67,0,0,0,0-1L19.3,8l-.1-.1H19a.76.76,0,0,0-.5.2c-.1.1-.1.2-.2.2a.63.63,0,0,0,.2.8c.1.1.2.1.2.2Z" transform="translate(-0.5 -0.5)"/></svg>