<svg id="Capa_1" data-name="Capa 1" xmlns="http://www.w3.org/2000/svg" viewBox="0 0 53 53"><defs><style>.cls-1{fill:#fff;}.cls-2{fill:#7d5786;}.cls-3{fill:#8341a2;}</style></defs><circle class="cls-1" cx="26.5" cy="26.5" r="26.5"/><path id="Shape" class="cls-1" d="M25.4,5.6A21.53,21.53,0,0,0,8,17.3a21.31,21.31,0,0,0,1.1,21,1.39,1.39,0,0,1,.1,1.4L6.3,46.9a1.06,1.06,0,0,0,.1.8.78.78,0,0,0,.8.2l8.1-2.5a1.67,1.67,0,0,1,1.2.1,21.27,21.27,0,0,0,24.8-2.6,21.54,21.54,0,0,0,5.5-24.4A21.29,21.29,0,0,0,25.4,5.6Z" transform="translate(-0.5 -0.5)"/><path class="cls-1" d="M24,29.9a12,12,0,0,1-3.4-6.1,1.57,1.57,0,0,1,.4-1.3l1.7-1.7a1.38,1.38,0,0,0,.2-1.8l-3-4.8a1.43,1.43,0,0,0-1.9-.5l-4.8,2.4a1.41,1.41,0,0,0-.8,1.5,26.89,26.89,0,0,0,8.1,15.8,27.15,27.15,0,0,0,15.8,8.1,1.56,1.56,0,0,0,1.5-.8l2.4-4.8a1.54,1.54,0,0,0-.5-1.9l-4.8-3a1.38,1.38,0,0,0-1.8.2l-1.7,1.7a1.48,1.48,0,0,1-1.3.4A12.38,12.38,0,0,1,24,29.9Z" transform="translate(-0.5 -0.5)"/><path class="cls-2" d="M39.7,34l-4.8-3a1.38,1.38,0,0,0-1.8.2h0L37.5,34a1.43,1.43,0,0,1,.5,1.9l-2.4,4.8a.9.9,0,0,1-.6.6c.5.1.9.1,1.3.2a1.56,1.56,0,0,0,1.5-.8l2.4-4.8a1.34,1.34,0,0,0-.5-1.9Z" transform="translate(-0.5 -0.5)"/><path class="cls-1" d="M6.4,19l1.4.5A21,21,0,0,0,6.5,25H5.1a23.76,23.76,0,0,1,1.3-6Z" transform="translate(-0.5 -0.5)"/><path class="cls-3" d="M23.3,21.3a2.13,2.13,0,0,0,.3-2.7l-3-4.8a2.21,2.21,0,0,0-2.9-.8l-4.8,2.4a2.23,2.23,0,0,0-1.2,2.2A27.14,27.14,0,0,0,20,33.8c6,5.9,12.1,7.8,16.2,8.3a2.23,2.23,0,0,0,2.2-1.2l2.4-4.8a2.23,2.23,0,0,0-.8-2.9l-4.8-3a2.25,2.25,0,0,0-2.7.3l-1.7,1.7a.73.73,0,0,1-.6.2,9.93,9.93,0,0,1-5.7-3.2,11.18,11.18,0,0,1-3.2-5.7c0-.2,0-.5.2-.6Zm-3.4,2.6a11.72,11.72,0,0,0,3.6,6.5A12.74,12.74,0,0,0,30,34a2.21,2.21,0,0,0,1.9-.6l1.7-1.7a.74.74,0,0,1,.9-.1l4.8,3a.91.91,0,0,1,.3,1l-2.4,4.8a.67.67,0,0,1-.7.4,26.22,26.22,0,0,1-15.4-7.9,26.22,26.22,0,0,1-7.9-15.4.67.67,0,0,1,.4-.7l4.8-2.4a.37.37,0,0,1,.3-.1.6.6,0,0,1,.6.3l3,4.8a.74.74,0,0,1-.1.9L20.5,22a2.21,2.21,0,0,0-.6,1.9Z" transform="translate(-0.5 -0.5)"/><path class="cls-1" d="M6.3,22.8a.7.7,0,0,1,0-1.4h0a.7.7,0,1,1,0,1.4Z" transform="translate(-0.5 -0.5)"/><path class="cls-3" d="M8.5,39.3,5.6,46.5A1.4,1.4,0,0,0,5.9,48a1.44,1.44,0,0,0,1.5.4l8.1-2.5a.66.66,0,0,1,.6.1,22.61,22.61,0,0,0,11,2.9h1.4A22.13,22.13,0,0,0,47,36.5a21.9,21.9,0,0,0-1.6-22.1,22.32,22.32,0,0,0-20-9.6,21.62,21.62,0,0,0-6.1,1.4,21.94,21.94,0,0,0-5.4,3,20.4,20.4,0,0,0-4.4,4.4,20.58,20.58,0,0,0-3,5.4.64.64,0,0,0,0,.6.78.78,0,0,0,.4.4.75.75,0,0,0,.9-.4,21.21,21.21,0,0,1,2.8-5.1,19.92,19.92,0,0,1,4.1-4.1,18,18,0,0,1,5.1-2.8,21.71,21.71,0,0,1,5.6-1.3,20.65,20.65,0,1,1-8.7,38.5,2.25,2.25,0,0,0-1.8-.2L7,47l2.9-7.2a2,2,0,0,0-.2-2A20.19,20.19,0,0,1,6.5,25.1.75.75,0,1,0,5,25,22.75,22.75,0,0,0,8.3,38.7a.4.4,0,0,1,.2.6Z" transform="translate(-0.5 -0.5)"/><path class="cls-3" d="M40.1,14.8a.62.62,0,0,0,.7.2c.3-.1.5-.3.5-.5a.62.62,0,0,0-.2-.7,19.54,19.54,0,0,0-11-5.9.76.76,0,0,0-.8.6.64.64,0,0,0,.6.8A18.33,18.33,0,0,1,40.1,14.8Z" transform="translate(-0.5 -0.5)"/><circle id="Oval" class="cls-3" cx="26.6" cy="7.9" r="0.7"/></svg>