<svg id="Capa_1" data-name="Capa 1" xmlns="http://www.w3.org/2000/svg" viewBox="0 0 47.27 4.3"><defs><style>.cls-1{fill:#8341a2;}</style></defs><path class="cls-1" d="M46.74.21a4.46,4.46,0,0,0-3.38,1.62A3.05,3.05,0,0,1,41,3a3.05,3.05,0,0,1-2.34-1.18,4.34,4.34,0,0,0-6.76,0A3.05,3.05,0,0,1,29.58,3a3.05,3.05,0,0,1-2.34-1.18A4.46,4.46,0,0,0,23.86.21a4.52,4.52,0,0,0-3.4,1.62A3,3,0,0,1,18.13,3a3.05,3.05,0,0,1-2.34-1.18A4.46,4.46,0,0,0,12.41.21,4.5,4.5,0,0,0,9,1.83,3,3,0,0,1,6.69,3,3.05,3.05,0,0,1,4.35,1.83,4.46,4.46,0,0,0,1,.21a.75.75,0,0,0,0,1.5A3,3,0,0,1,3.3,2.9,4.5,4.5,0,0,0,6.69,4.51,4.46,4.46,0,0,0,10.07,2.9a3.06,3.06,0,0,1,2.34-1.19A3,3,0,0,1,14.74,2.9a4.5,4.5,0,0,0,3.39,1.61A4.47,4.47,0,0,0,21.51,2.9a2.91,2.91,0,0,1,4.69,0A4.35,4.35,0,0,0,33,2.9a2.9,2.9,0,0,1,4.68,0,4.35,4.35,0,0,0,6.76,0,3.06,3.06,0,0,1,2.34-1.19.75.75,0,0,0,0-1.5Z" transform="translate(-0.22 -0.21)"/></svg>